<?xml version="1.0" encoding="utf-8"?>
<!-- Generator: Adobe Illustrator 18.1.0, SVG Export Plug-In . SVG Version: 6.00 Build 0)  -->
<svg version="1.1" id="Layer_1" xmlns="http://www.w3.org/2000/svg" xmlns:xlink="http://www.w3.org/1999/xlink" x="0px" y="0px"
	 viewBox="0 0 85 85" enable-background="new 0 0 85 85" xml:space="preserve">
<rect fill="#08457B" width="85" height="85"/>
<polygon fill="#FFFFFF" points="12.2,3.4 0,15.5 0,85 72.8,85 85,72.8 85,3.4 "/>
<g>
	<defs>
		<rect id="SVGID_1_" y="1.8" width="85" height="81.6"/>
	</defs>
	<clipPath id="SVGID_2_">
		<use xlink:href="#SVGID_1_"  overflow="visible"/>
	</clipPath>
	<path clip-path="url(#SVGID_2_)" fill="#FFFFFF" d="M31,21.3C31,21.3,31,21.3,31,21.3c0.7,0,1.3,0.2,1.9,0.5h0l0.1,0
		c1.1,0.7,2.6,0.7,3.7,0l0.1,0l0,0c1.2-0.7,2.7-0.7,3.9,0l0,0c1.1,0.7,2.6,0.6,3.7,0l0,0c1.2-0.7,2.8-0.7,4,0c1.1,0.7,2.6,0.7,3.7,0
		c0.6-0.4,1.3-0.5,2-0.5v-6.8H31V21.3z"/>
	<path clip-path="url(#SVGID_2_)" fill="#FFFFFF" d="M42.5,34.3c0-0.1-0.1-0.1-0.1-0.2h-0.4c-0.1,0-0.1,0.1-0.1,0.1
		c0,0.1,0.1,0.1,0.1,0.1h1.3c0.1,0,0.1-0.1,0.1-0.1c0-0.1-0.1-0.1-0.1-0.1h-0.4c0,0.1-0.1,0.1-0.1,0.2H42.5z"/>
	<path clip-path="url(#SVGID_2_)" fill="#FFFFFF" d="M42.3,34.1c0,0.1,0.1,0.1,0.1,0.2h0.2c0-0.1,0.1-0.1,0.1-0.2h-0.1v-0.3
		c0,0.1-0.1,0.1-0.1,0.2c0-0.1-0.1-0.1-0.1-0.2v0.3H42.3z"/>
	<polygon clip-path="url(#SVGID_2_)" fill="#FFFFFF" points="38.5,23.8 37.9,22.1 37.4,23.8 35.5,23.8 37,24.9 36.5,26.6 37.9,25.6 
		39.3,26.6 38.8,24.9 40.3,23.8 	"/>
	<polygon clip-path="url(#SVGID_2_)" fill="#FFFFFF" points="47.8,23.8 47.2,22.1 46.7,23.8 44.8,23.8 46.3,24.9 45.8,26.6 
		47.2,25.5 48.6,26.6 48.1,24.9 49.6,23.8 	"/>
	<polygon clip-path="url(#SVGID_2_)" fill="#FFFFFF" points="43.1,37.3 42.6,35.6 42,37.3 40.2,37.3 41.7,38.4 41.1,40.1 42.6,39 
		44,40.1 43.4,38.4 44.9,37.3 	"/>
	<path clip-path="url(#SVGID_2_)" fill="#00457C" d="M30.4,14v12.2c0,1,0.4,3.7,1.9,6.5c2.1,4,5.5,6.9,10.1,8.9l0.1,0l0.1,0
		c9.9-4.1,12-12.5,12-15.4V14H30.4z M43.5,33.7l-0.2,0.1l0.2,0.1c0.1,0.1,0.2,0.2,0.2,0.3c0,0.2-0.2,0.4-0.4,0.4h-1.6
		c-0.2,0-0.4-0.2-0.4-0.4c0-0.1,0.1-0.3,0.2-0.3l0.2-0.1l-0.2-0.1c-0.4-0.3-0.8-0.4-1.2-0.4c-0.4,0-0.9,0.1-1.3,0.4
		c-0.4,0.3-0.8,0.4-1.5,0.4c-0.9,0-1.5-0.3-2.2-0.8l0,0H35l0,0c-0.1,0.1-0.1,0.1-0.2,0.1c-0.2,0-0.3-0.1-0.3-0.3
		c0-0.1,0.1-0.3,0.3-0.3c0.1,0,0.2,0,0.2,0.1l0,0h0.5v-0.6H35l0,0c-0.1,0.1-0.1,0.1-0.2,0.1c-0.2,0-0.3-0.1-0.3-0.3
		c0-0.1,0.1-0.3,0.3-0.3c0.1,0,0.2,0,0.2,0.1l0,0h0.5v-0.6H35l0,0c-0.1,0.1-0.1,0.1-0.2,0.1c-0.2,0-0.3-0.1-0.3-0.3s0.1-0.3,0.3-0.3
		c0.1,0,0.2,0,0.2,0.1l0,0h0.5v-0.6H35l0,0C34.9,31,34.8,31,34.7,31c-0.2,0-0.3-0.1-0.3-0.3c0-0.1,0.1-0.3,0.3-0.3
		c0.1,0,0.2,0,0.2,0.1l0,0h0.5V30H35l0,0c-0.1,0.1-0.1,0.1-0.2,0.1c-0.2,0-0.3-0.1-0.3-0.3c0-0.1,0.1-0.3,0.3-0.3
		c0.1,0,0.2,0,0.2,0.1l0,0h0.5v-0.6H35l0,0c-0.1,0.1-0.1,0.1-0.2,0.1c-0.2,0-0.3-0.1-0.3-0.3c0-0.1,0.1-0.3,0.3-0.3
		c0.1,0,0.2,0,0.2,0.1l0,0h0.5v-0.6H35l0,0c-0.1,0.1-0.1,0.1-0.2,0.1c-0.2,0-0.3-0.1-0.3-0.3c0-0.1,0.1-0.3,0.3-0.3
		c0.1,0,0.2,0,0.2,0.1l0,0l0.4,0l0.4-0.2v5.2l0.1,0.1c1.1,0.7,2.2,0.8,3.2,0.2c1-0.6,2.5-0.6,3.3,0.6h-0.4c-0.1,0-0.1,0.1-0.1,0.1
		c0,0.1,0.1,0.1,0.1,0.1h1.3c0.1,0,0.1-0.1,0.1-0.1c0-0.1-0.1-0.1-0.1-0.1h-0.4c0.9-1.3,2.3-1.1,3.3-0.6c0.9,0.5,2,0.4,3.1-0.2
		l0.1-0.1V28l0.4,0.2l0.4,0l0,0c0.1-0.1,0.1-0.1,0.2-0.1c0.2,0,0.3,0.1,0.3,0.3c0,0.1-0.1,0.3-0.3,0.3c-0.1,0-0.2,0-0.2-0.1l0,0
		h-0.5V29h0.5l0,0c0.1-0.1,0.1-0.1,0.2-0.1c0.2,0,0.3,0.1,0.3,0.3c0,0.1-0.1,0.3-0.3,0.3c-0.1,0-0.2,0-0.2-0.1l0,0h-0.5v0.6h0.5l0,0
		c0.1-0.1,0.1-0.1,0.2-0.1c0.2,0,0.3,0.1,0.3,0.3c0,0.1-0.1,0.3-0.3,0.3c-0.1,0-0.2,0-0.2-0.1l0,0h-0.5v0.6h0.5l0,0
		c0.1-0.1,0.1-0.1,0.2-0.1c0.2,0,0.3,0.1,0.3,0.3c0,0.1-0.1,0.3-0.3,0.3c-0.1,0-0.2,0-0.2-0.1l0,0h-0.5v0.6h0.5l0,0
		c0.1-0.1,0.1-0.1,0.2-0.1c0.2,0,0.3,0.1,0.3,0.3s-0.1,0.3-0.3,0.3c-0.1,0-0.2,0-0.2-0.1l0,0h-0.5v0.6h0.5l0,0
		c0.1-0.1,0.1-0.1,0.2-0.1c0.2,0,0.3,0.1,0.3,0.3c0,0.1-0.1,0.3-0.3,0.3c-0.1,0-0.2,0-0.2-0.1l0,0h-0.5v0.6h0.5l0,0
		c0.1-0.1,0.1-0.1,0.2-0.1c0.2,0,0.3,0.1,0.3,0.3c0,0.1-0.1,0.3-0.3,0.3c-0.1,0-0.2,0-0.2-0.1l0,0h-0.4l0,0
		c-0.6,0.5-1.3,0.8-2.2,0.8c-0.7,0-1.1-0.1-1.5-0.4C45.2,33.2,44.3,33.2,43.5,33.7 M36.4,33c0.8,0.4,1.5,0.5,2.7-0.1
		c1.3-0.7,2.6-0.2,3.4,0.5v0.4c-1-1.2-2.5-1.2-3.6-0.6C38,33.8,37,33.7,36,33.1v-5.3l0.3-0.1L36.4,33L36.4,33z M36.5,32.8v-5.3l0,0
		c0.9,0.2,1.6,0.1,2.5-0.2c1.1-0.5,2.2-0.3,3.4,0.4v5.4c-0.5-0.4-1.3-0.8-2.1-0.8c-0.5,0-1,0.1-1.5,0.4
		C37.8,33.3,37.3,33.2,36.5,32.8 M46.1,33c1.2,0.6,1.8,0.5,2.7,0.1l0.1,0v-5.3l0.3,0.1l0,5.3c-1.1,0.5-2,0.6-2.8,0.2
		c-1.1-0.5-2.6-0.7-3.6,0.6v-0.4C43.5,32.7,44.8,32.3,46.1,33 M42.7,33.1v-5.4c1.1-0.8,2.2-0.9,3.3-0.4c0.9,0.4,1.6,0.5,2.5,0.2l0,0
		v5.3c-0.7,0.4-1.3,0.4-2.4-0.1C44.9,32,43.5,32.4,42.7,33.1 M48.6,26.6l-1.4-1.1l-1.4,1.1l0.5-1.7l-1.5-1.1h1.8l0.5-1.7l0.6,1.7
		h1.8l-1.5,1.1L48.6,26.6z M39.3,26.6l-1.4-1.1l-1.4,1.1l0.5-1.7l-1.5-1.1h1.8l0.5-1.7l0.5,1.7h1.8l-1.5,1.1L39.3,26.6z M41.1,40.1
		l0.5-1.7l-1.5-1.1H42l0.6-1.7l0.5,1.7h1.8l-1.5,1.1l0.5,1.7L42.6,39L41.1,40.1z M54.2,21.3c-0.7,0-1.4,0.2-2,0.5
		c-1.1,0.7-2.6,0.7-3.7,0c-1.2-0.7-2.8-0.7-4,0l0,0c-1.1,0.7-2.6,0.7-3.7,0l0,0c-1.2-0.7-2.7-0.7-3.9,0l0,0l-0.1,0
		c-1.1,0.7-2.6,0.7-3.7,0l-0.1,0c-0.6-0.3-1.2-0.5-1.9-0.5c0,0,0,0,0,0v-6.7h23.2V21.3z"/>
	<path clip-path="url(#SVGID_2_)" fill="#00457C" d="M34.3,16.2c0.4-0.5,1-0.6,1.2-0.6c1.8-0.1,2.7,1.3,2.7,2.4c0,1.2-1,1.5-1.1,1.6
		c0,0,0,0.3,0.2,0.6c0,0,0.1,0.1,0,0.1c0,0,0,0.1-0.1,0.1c0,0,0,0.1,0,0.1c0,0.1,0,0.2-0.1,0.3c0,0.1,0,0.4,0,0.5c0,0,0,0,0,0
		C37,21.3,37,21,36.9,20.9c-0.2,0.1-0.5,0.4-0.6,0.6c0,0-0.1,0.1-0.1,0c0,0,0-0.4,0.3-0.6c-0.2-0.1-0.4,0-0.5,0.1c0,0-0.1,0,0,0
		c0,0,0.1-0.2,0.6-0.3c0,0,0.1-0.2,0.1-0.3c0-0.2-0.1-0.4-0.2-0.6c0,0-0.4,0-0.6,0.2c0,0,0,0,0,0.1v0.1c0,0,0,0.1-0.1,0.1
		c0,0-0.4,0.1-0.6,0.2c0,0-0.2,0.1-0.3,0.3c0,0-0.1,0.2-0.3,0.2c0,0-0.1,0-0.2,0.1c-0.1,0.1-0.1,0.1-0.2,0.1c0,0-0.2,0.1-0.2,0.3
		c0,0,0,0.1,0,0c0-0.1,0-0.1,0-0.1c0-0.2,0.1-0.3,0.2-0.4c0,0,0,0-0.1,0c-0.1,0-0.6,0-0.9,0.1c0,0,0,0,0,0c0.1-0.1,0.2-0.3,0.8-0.3
		c0-0.1-0.3-0.2-0.4-0.2c0,0,0,0,0,0c0,0,0.3-0.1,0.6,0.1c0,0,0.2-0.1,0.4-0.1c0.1-0.1,0.5-0.4,0.6-0.5c0,0,0-0.1,0-0.2l0,0
		c-0.2-0.2-0.2-0.6-0.2-0.8c-0.4,0-0.7-0.3-0.9-0.6c-0.3,0-0.8-0.2-1-0.8c-0.9,0.7-1.5,1.8-1.6,1.9c0,0,0,0,0,0
		c-0.1-0.2-0.1-0.5-0.1-0.6c0.2-0.5,0.6-1.2,1.1-1.8c-0.2-1,0.7-1.3,1.1-1.3C34,15.9,34.2,16.1,34.3,16.2"/>
	<path clip-path="url(#SVGID_2_)" fill="#FFFFFF" d="M36.1,16.4C36.1,16.4,36.1,16.4,36.1,16.4c0-0.1,0.2-0.2,0.3-0.2
		c-0.5-0.2-0.9,0-0.9,0l0,0c0,0,0.1-0.1,0.3-0.2c-0.5,0-0.8,0.3-0.8,0.3l0,0c0,0,0-0.1,0.2-0.3c-0.6,0-1,0.7-1,0.7s-0.1-0.5-0.6-0.5
		c-0.4-0.1-1.2,0.4-0.9,1.1c-0.1,0.3-0.6,0.7-1,1.5c0,0,0,0,0,0c0.4-0.5,0.9-1.2,1.4-1.5c0.1,0,0.4,0.8,1.1,0.9
		c0.1,0.1,0.4,0.7,1.1,0.6c0,0.1,0,0.6,0.1,0.8l0,0c0,0,0,0,0,0c0.1-0.1,0.4-0.3,0.7-0.4c0,0,0.1-0.4,0.2-0.5
		c0.6-0.1,0.9-0.6,0.9-1.1C37.3,17,36.7,16.3,36.1,16.4 M33.1,17.1c-0.1,0-0.1-0.1-0.1-0.2c0-0.1,0.1-0.1,0.1-0.1s0.2,0.1,0.2,0.1
		C33.2,17.1,33.1,17.1,33.1,17.1"/>
	<path clip-path="url(#SVGID_2_)" fill="#00457C" d="M41.9,16.2c0.4-0.5,1-0.6,1.2-0.6c1.8-0.1,2.7,1.3,2.7,2.4c0,1.2-1,1.5-1.1,1.6
		c0,0,0,0.3,0.2,0.6c0,0,0.1,0.1,0,0.1c0,0,0,0.1-0.1,0.1c0,0,0,0.1,0,0.1c0,0.1,0,0.2-0.1,0.3c0,0.1,0,0.4,0,0.5c0,0,0,0,0,0
		c-0.1-0.1-0.2-0.3-0.2-0.4c-0.2,0.1-0.5,0.4-0.6,0.6c0,0-0.1,0.1-0.1,0c0,0,0-0.4,0.3-0.6c-0.2-0.1-0.4,0-0.5,0.1c0,0-0.1,0,0,0
		c0,0,0.1-0.2,0.6-0.3c0,0,0.1-0.2,0.1-0.3c0-0.2-0.1-0.4-0.2-0.6c0,0-0.4,0-0.6,0.2c0,0,0,0,0,0.1v0.1c0,0,0,0.1-0.1,0.1
		c0,0-0.4,0.1-0.6,0.2c0,0-0.2,0.1-0.3,0.3c0,0-0.1,0.2-0.3,0.2c0,0-0.1,0-0.2,0.1c-0.1,0.1-0.1,0.1-0.2,0.1c0,0-0.2,0.1-0.2,0.3
		c0,0,0,0.1,0,0c0-0.1,0-0.1,0-0.1c0-0.2,0.1-0.3,0.2-0.4c0,0,0,0-0.1,0c-0.1,0-0.6,0-0.9,0.1c0,0,0,0,0,0c0.1-0.1,0.2-0.3,0.8-0.3
		c0-0.1-0.3-0.2-0.4-0.2c0,0,0,0,0,0c0,0,0.3-0.1,0.6,0.1c0,0,0.2-0.1,0.3-0.1c0.1-0.1,0.5-0.4,0.6-0.5c0,0,0-0.1,0-0.2l0,0
		c-0.2-0.2-0.2-0.6-0.2-0.8c-0.4,0-0.7-0.3-0.9-0.6c-0.3,0-0.8-0.2-1-0.8c-0.9,0.7-1.5,1.8-1.6,1.9c0,0,0,0,0,0
		C39,19.3,39,19.1,39,19c0.2-0.5,0.6-1.2,1.1-1.8c-0.2-1,0.8-1.3,1.1-1.3C41.6,15.9,41.9,16.1,41.9,16.2"/>
	<path clip-path="url(#SVGID_2_)" fill="#FFFFFF" d="M43.7,16.4C43.7,16.4,43.7,16.4,43.7,16.4c0-0.1,0.2-0.2,0.3-0.2
		c-0.5-0.2-0.9,0-0.9,0l0,0c0,0,0.1-0.1,0.2-0.2c-0.5,0-0.8,0.3-0.8,0.3l0,0c0,0,0-0.1,0.2-0.3c-0.6,0-1,0.7-1,0.7s-0.1-0.5-0.6-0.5
		c-0.4-0.1-1.2,0.4-0.9,1.1c-0.1,0.3-0.6,0.7-1,1.5c0,0,0,0,0,0c0.4-0.5,0.9-1.2,1.4-1.5c0.1,0,0.4,0.8,1.1,0.9
		c0.1,0.1,0.4,0.7,1.1,0.6c0,0.1,0,0.6,0.1,0.8l0,0c0,0,0,0,0,0c0.1-0.1,0.4-0.3,0.7-0.4c0,0,0.1-0.4,0.2-0.5
		c0.6-0.1,0.9-0.6,0.9-1.1C44.9,17,44.4,16.3,43.7,16.4 M40.7,17.1c-0.1,0-0.2-0.1-0.2-0.2c0-0.1,0.1-0.1,0.2-0.1
		c0.1,0,0.1,0.1,0.1,0.1C40.8,17.1,40.8,17.1,40.7,17.1"/>
	<path clip-path="url(#SVGID_2_)" fill="#00457C" d="M49.5,16.2c0.4-0.5,1-0.6,1.2-0.6c1.8-0.1,2.7,1.3,2.7,2.4c0,1.2-1,1.5-1.1,1.6
		c0,0,0,0.3,0.2,0.6c0,0,0.1,0.1,0,0.1c0,0,0,0.1-0.1,0.1c0,0,0,0.1,0,0.1c0,0.1,0,0.2-0.1,0.3c0,0.1,0,0.4,0,0.5c0,0,0,0,0,0
		c-0.1-0.1-0.2-0.3-0.2-0.4c-0.2,0.1-0.5,0.4-0.6,0.6c0,0-0.1,0.1-0.1,0c0,0,0-0.4,0.3-0.6c-0.2-0.1-0.4,0-0.5,0.1c0,0-0.1,0,0,0
		c0,0,0.1-0.2,0.6-0.3c0,0,0.1-0.2,0.1-0.3c0-0.2-0.1-0.4-0.2-0.6c0,0-0.4,0-0.6,0.2c0,0,0,0,0,0.1v0.1c0,0,0,0.1-0.1,0.1
		c0,0-0.4,0.1-0.6,0.2c0,0-0.2,0.1-0.3,0.3c0,0-0.1,0.2-0.3,0.2c0,0-0.1,0-0.2,0.1c-0.1,0.1-0.1,0.1-0.2,0.1c0,0-0.2,0.1-0.2,0.3
		c0,0,0,0.1,0,0c0-0.1,0-0.1,0-0.1c0-0.2,0.1-0.3,0.2-0.4c0,0,0,0-0.1,0c-0.1,0-0.6,0-0.9,0.1c0,0,0,0,0,0c0.1-0.1,0.2-0.3,0.8-0.3
		c0-0.1-0.3-0.2-0.4-0.2c0,0,0,0,0,0c0,0,0.3-0.1,0.6,0.1c0,0,0.2-0.1,0.4-0.1c0.1-0.1,0.5-0.4,0.6-0.5c0,0,0-0.1,0-0.2l0,0
		c-0.2-0.2-0.2-0.6-0.2-0.8c-0.4,0-0.7-0.3-0.9-0.6c-0.3,0-0.8-0.2-1-0.8c-0.9,0.7-1.5,1.8-1.6,1.9c0,0,0,0-0.1,0
		c-0.1-0.2-0.1-0.5-0.1-0.6c0.2-0.5,0.6-1.2,1.1-1.8c-0.2-1,0.8-1.3,1.1-1.3C49.2,15.9,49.4,16.1,49.5,16.2"/>
	<path clip-path="url(#SVGID_2_)" fill="#FFFFFF" d="M51.3,16.4C51.3,16.4,51.3,16.4,51.3,16.4c0-0.1,0.2-0.2,0.3-0.2
		c-0.5-0.2-0.9,0-0.9,0l0,0c0,0,0.1-0.1,0.2-0.2c-0.5,0-0.8,0.3-0.8,0.3l0,0c0,0,0-0.1,0.2-0.3c-0.6,0-1,0.7-1,0.7s-0.1-0.5-0.6-0.5
		c-0.4-0.1-1.2,0.4-0.9,1.1c-0.1,0.3-0.6,0.7-1,1.5c0,0,0,0,0,0c0.4-0.5,0.9-1.2,1.4-1.5c0.1,0,0.4,0.8,1.1,0.9
		c0.1,0.1,0.4,0.7,1.1,0.6c0,0.1,0,0.6,0.1,0.8l0,0c0,0,0,0,0,0c0.1-0.1,0.4-0.3,0.7-0.4c0,0,0.1-0.4,0.2-0.5
		c0.6-0.1,0.9-0.6,0.9-1.1C52.5,17,51.9,16.3,51.3,16.4 M48.3,17.1c-0.1,0-0.1-0.1-0.1-0.2c0-0.1,0.1-0.1,0.1-0.1
		c0.1,0,0.2,0.1,0.2,0.1C48.4,17.1,48.3,17.1,48.3,17.1"/>
	<polygon clip-path="url(#SVGID_2_)" fill="#00457C" points="23.7,49.6 22,49.6 22,48.4 23.6,48.4 23.6,47.7 22,47.7 22,46.5 
		23.7,46.5 23.7,45.7 21.2,45.7 21.2,50.4 23.7,50.4 	"/>
	<polygon clip-path="url(#SVGID_2_)" fill="#00457C" points="45,46.5 45,45.7 42.6,45.7 42.6,50.4 45.1,50.4 45.1,49.6 43.3,49.6 
		43.3,48.4 44.9,48.4 44.9,47.7 43.3,47.7 43.3,46.5 	"/>
	<polygon clip-path="url(#SVGID_2_)" fill="#00457C" points="17.1,48.4 19.2,48.4 19.2,50.4 20,50.4 20,45.7 19.2,45.7 19.2,47.7 
		17.1,47.7 17.1,45.7 16.4,45.7 16.4,50.4 17.1,50.4 	"/>
	<path clip-path="url(#SVGID_2_)" fill="#00457C" d="M28.2,50.4c0.6,0,1.1-0.2,1.4-0.5c0.3-0.3,0.5-0.8,0.5-1.4v-2.8h-0.7v2.7
		c0,0.5-0.1,0.7-0.2,0.9c-0.1,0.1-0.4,0.3-0.9,0.3c-0.3,0-0.6-0.1-0.8-0.4c-0.2-0.2-0.2-0.4-0.2-0.9v-2.7h-0.7v2.9
		c0,0.6,0.2,1.1,0.5,1.4C27.3,50.3,27.7,50.4,28.2,50.4"/>
	<path clip-path="url(#SVGID_2_)" fill="#00457C" d="M35,50.4v-4.6h-0.7V49c-0.1-0.1-2.6-3.3-2.6-3.3h-0.6v4.6h0.7v-3.3
		c0.1,0.1,2.6,3.3,2.6,3.3H35z"/>
	<path clip-path="url(#SVGID_2_)" fill="#00457C" d="M41.6,45.7h-0.7c0,0-1.1,2.9-1.2,3c0-0.1-1.2-3-1.2-3h-0.7l1.8,4.7l0.2,0
		L41.6,45.7z"/>
	<path clip-path="url(#SVGID_2_)" fill="#00457C" d="M48.8,50.4h0.9l-0.1-0.2c-0.2-0.4-0.3-0.5-0.5-0.8c-0.1-0.3-0.3-0.5-0.4-0.7
		c-0.1-0.2-0.3-0.3-0.4-0.5c0.4-0.2,0.6-0.6,0.6-1.1c0-0.4-0.1-0.7-0.4-1c-0.2-0.2-0.6-0.4-1-0.4h-1.1v4.6h0.7v-1.9h0.2
		c0.3,0,0.5,0.1,1,1L48.8,50.4z M48.1,47.1c0,0.2-0.1,0.3-0.2,0.4c-0.1,0.1-0.3,0.2-0.6,0.2h-0.3v-1.2h0.3
		C47.9,46.4,48.1,46.6,48.1,47.1L48.1,47.1z"/>
	<path clip-path="url(#SVGID_2_)" fill="#00457C" d="M51.6,46.5c0.3,0,0.6,0.1,0.9,0.4l0.1,0.1l0,0v-1l0,0l0,0
		c-0.3-0.2-0.6-0.3-0.9-0.3c-0.4,0-0.7,0.1-0.9,0.3c-0.2,0.2-0.4,0.5-0.4,0.9c0,0.6,0.4,1,0.9,1.3l0.1,0.1l0.2,0.1
		c0.1,0.1,0.2,0.2,0.3,0.2c0.2,0.2,0.2,0.3,0.2,0.5c0,0.2-0.2,0.5-0.6,0.5c-0.4,0-0.7-0.2-1-0.6L50.4,49l0,0l0,1.1l0,0
		c0.4,0.3,0.7,0.4,1.2,0.4c0.3,0,0.6-0.1,0.9-0.4c0.2-0.2,0.3-0.6,0.3-0.9c0-0.8-0.5-1.1-0.9-1.4l-0.3-0.2c-0.1-0.1-0.2-0.1-0.3-0.2
		c-0.2-0.1-0.2-0.3-0.2-0.5C51,46.7,51.2,46.5,51.6,46.5"/>
	<path clip-path="url(#SVGID_2_)" fill="#00457C" d="M61,50.4h0.7v-2.4c0,0,1.6-2.2,1.6-2.2h-0.9c0,0-1,1.4-1,1.5c0,0-1-1.5-1-1.5
		l-0.9,0c0,0,1.6,2.2,1.6,2.2V50.4z"/>
	<rect x="36.2" y="45.7" clip-path="url(#SVGID_2_)" fill="#00457C" width="0.7" height="4.6"/>
	<rect x="54" y="45.7" clip-path="url(#SVGID_2_)" fill="#00457C" width="0.7" height="4.6"/>
	<polygon clip-path="url(#SVGID_2_)" fill="#00457C" points="13.7,50.4 14.4,50.4 14.4,46.5 15.8,46.5 15.8,45.7 12.3,45.7 
		12.3,46.5 13.7,46.5 	"/>
	<polygon clip-path="url(#SVGID_2_)" fill="#00457C" points="57.1,50.4 57.8,50.4 57.8,46.5 59.2,46.5 59.2,45.7 55.7,45.7 
		55.7,46.5 57.1,46.5 	"/>
	<polygon clip-path="url(#SVGID_2_)" fill="#00457C" points="70.8,48.3 72.4,48.3 72.4,47.5 70.8,47.5 70.8,46.5 72.4,46.5 
		72.4,45.7 70.1,45.7 70.1,50.3 70.8,50.3 	"/>
	<path clip-path="url(#SVGID_2_)" fill="#00457C" d="M67,50.4c0.7,0,1.2-0.2,1.6-0.7c0.4-0.4,0.6-1,0.6-1.6c0-0.6-0.2-1.2-0.6-1.6
		c-0.4-0.5-1-0.7-1.6-0.7c-0.6,0-1.2,0.2-1.6,0.7c-0.4,0.4-0.6,1-0.6,1.6c0,0.6,0.2,1.2,0.6,1.6C65.8,50.2,66.4,50.4,67,50.4
		 M66,46.9c0.3-0.3,0.6-0.5,1-0.5c0.9,0,1.5,0.7,1.5,1.6c0,0.4-0.1,0.9-0.4,1.2c-0.3,0.3-0.6,0.5-1.1,0.5c-0.4,0-0.8-0.2-1-0.5
		c-0.3-0.3-0.4-0.7-0.4-1.2S65.7,47.2,66,46.9"/>
	<path clip-path="url(#SVGID_2_)" fill="#00457C" d="M52.9,53.6h-0.9l-3,7.9h1.3c0,0,0.8-2.2,0.9-2.2h2.7c0,0,0.9,2.2,0.9,2.2h1.3
		L52.9,53.6z M51.7,58c0-0.1,0.8-2.1,0.8-2.2c0.1,0.1,0.9,2.2,0.9,2.2H51.7z"/>
	<polygon clip-path="url(#SVGID_2_)" fill="#00457C" points="47.9,60.2 44.8,60.2 44.8,53.6 43.6,53.6 43.6,61.5 47.9,61.5 	"/>
	<path clip-path="url(#SVGID_2_)" fill="#00457C" d="M14.4,59.2h2.7c0,0,0.9,2.2,0.9,2.2h1.3l-3.2-7.9h-0.9l-3,7.9h1.3
		C13.5,61.5,14.4,59.3,14.4,59.2 M15.7,55.8c0.1,0.1,0.9,2.2,0.9,2.2h-1.7C14.9,57.9,15.6,55.9,15.7,55.8"/>
	<path clip-path="url(#SVGID_2_)" fill="#00457C" d="M34.2,60.9v-1.5l-0.1,0L34,59.5c-0.7,0.5-1.6,0.8-2.3,0.8
		c-0.8,0-1.4-0.3-1.9-0.8c-0.5-0.5-0.7-1.2-0.7-2c0-0.8,0.3-1.5,0.7-2c0.5-0.5,1.1-0.8,1.8-0.8c0.8,0,1.5,0.2,2.3,0.8l0.2,0.1l0.1,0
		l-0.1-1.5l0,0c-1-0.4-1.7-0.6-2.4-0.6c-2.2,0-3.9,1.7-3.9,4.1c0,0.9,0.3,1.9,0.9,2.6c0.5,0.6,1.4,1.3,2.9,1.3
		C32.8,61.6,33.6,61.2,34.2,60.9L34.2,60.9z"/>
	<path clip-path="url(#SVGID_2_)" fill="#00457C" d="M38.5,57.3c0,0,3.1-3.7,3.1-3.7H40c0,0-2.6,3.1-2.7,3.2v-3.2h-1.3v7.9h1.3v-3.5
		c0.1,0.1,3.3,3.5,3.3,3.5h1.7C42.4,61.5,38.6,57.4,38.5,57.3"/>
	<path clip-path="url(#SVGID_2_)" fill="#00457C" d="M71.9,54.9c-0.7-0.8-1.7-1.3-2.9-1.3h-2.8v7.9H69c1.1,0,2.1-0.4,2.8-1.2
		c0.6-0.7,1-1.7,1-2.7C72.8,56.6,72.5,55.6,71.9,54.9 M68.9,60.2h-1.4v-5.4h1.4c0.8,0,1.5,0.3,2,0.8c0.4,0.5,0.6,1.1,0.6,1.9
		C71.5,58.5,71,60.2,68.9,60.2"/>
	<path clip-path="url(#SVGID_2_)" fill="#00457C" d="M23.2,61.6c1,0,1.8-0.3,2.4-0.9c0.5-0.6,0.8-1.4,0.8-2.3v-4.7h-1.3v4.6
		c0,0.8-0.1,1.3-0.4,1.6c-0.2,0.2-0.6,0.6-1.5,0.6c-0.6,0-1-0.2-1.4-0.6c-0.3-0.3-0.4-0.7-0.4-1.5v-4.6l-1.2,0v4.9
		c0,1,0.3,1.8,0.9,2.4C21.6,61.3,22.4,61.6,23.2,61.6"/>
	<path clip-path="url(#SVGID_2_)" fill="#00457C" d="M63,59.2c-0.1-0.1-4.4-5.6-4.4-5.6l-1,0v7.9h1.2v-5.6c0.1,0.1,4.4,5.6,4.4,5.6
		h1v-7.9H63V59.2z"/>
	<polygon clip-path="url(#SVGID_2_)" fill="#00457C" points="14.8,70.3 12.9,68 12.3,68 12.3,71.2 12.9,71.2 12.9,69 14.8,71.2 
		15.4,71.2 15.4,68 14.8,68 	"/>
	<polygon clip-path="url(#SVGID_2_)" fill="#00457C" points="19.2,69.8 20.6,69.8 20.6,69.4 19.2,69.4 19.2,68.5 20.7,68.5 20.7,68 
		18.6,68 18.6,71.2 20.7,71.2 20.7,70.7 19.2,70.7 	"/>
	<polygon clip-path="url(#SVGID_2_)" fill="#00457C" points="27.1,70 26.3,68 25.8,68 24.9,70 24.1,68 23.5,68 24.8,71.3 25,71.3 
		26,68.9 27,71.3 27.2,71.3 28.6,68 27.9,68 	"/>
	<polygon clip-path="url(#SVGID_2_)" fill="#00457C" points="38,68 35.1,68 35.1,68.5 36.9,68.5 35,71.2 38,71.2 38,70.7 36.1,70.7 
			"/>
	<polygon clip-path="url(#SVGID_2_)" fill="#00457C" points="41.6,69.8 43,69.8 43,69.4 41.6,69.4 41.6,68.5 43,68.5 43,68 41,68 
		41,71.2 43.1,71.2 43.1,70.7 41.6,70.7 	"/>
	<path clip-path="url(#SVGID_2_)" fill="#00457C" d="M47.2,68l-1.3,3.2h0.6l0.3-0.8h1.4l0.3,0.8h0.7L47.8,68H47.2z M47,70l0.5-1.3
		L48,70H47z"/>
	<polygon clip-path="url(#SVGID_2_)" fill="#00457C" points="52.8,68 52.1,68 52.1,71.2 54.3,71.2 54.3,70.7 52.8,70.7 	"/>
	<path clip-path="url(#SVGID_2_)" fill="#00457C" d="M58.3,68l-1.3,3.2h0.6l0.3-0.8h1.4l0.3,0.8h0.7L58.9,68H58.3z M58.1,70l0.5-1.3
		l0.5,1.3H58.1z"/>
	<polygon clip-path="url(#SVGID_2_)" fill="#00457C" points="65.7,70.3 63.8,68 63.2,68 63.2,71.2 63.8,71.2 63.8,69 65.8,71.2 
		66.3,71.2 66.3,68 65.7,68 	"/>
	<path clip-path="url(#SVGID_2_)" fill="#00457C" d="M71.8,68.2c-0.3-0.1-0.6-0.2-0.9-0.2h-1.3v3.2h1.3c0.3,0,0.6-0.1,0.9-0.2
		c0.3-0.1,0.5-0.3,0.6-0.6c0.1-0.2,0.2-0.5,0.2-0.8c0-0.3-0.1-0.6-0.2-0.8C72.2,68.6,72,68.4,71.8,68.2 M71.6,70.4
		c-0.2,0.2-0.5,0.3-0.8,0.3h-0.7v-2.2h0.6c0.4,0,0.6,0.1,0.8,0.3c0.2,0.2,0.3,0.5,0.3,0.8C71.9,70,71.8,70.2,71.6,70.4"/>
	<rect x="12.3" y="64.6" clip-path="url(#SVGID_2_)" fill="#00457C" width="60.4" height="0.4"/>
</g>
</svg>
