<?xml version="1.0" encoding="UTF-8" standalone="no"?>
<!-- Created with Inkscape (http://www.inkscape.org/) -->
<svg
   xmlns:svg="http://www.w3.org/2000/svg"
   xmlns="http://www.w3.org/2000/svg"
   version="1.0"
   width="452.01001"
   height="453.66"
   id="svg2">
  <defs
     id="defs4" />
  <g
     transform="translate(1.2402343,-4.0684743)"
     id="layer1">
    <path
       d="M 8.7604734,230.89847 L 8.7604734,14.068588 L 224.76477,14.121684 L 440.76907,14.17476 L 440.76907,230.95154 L 440.76907,447.72836 L 224.76477,447.72836 L 8.7604734,447.72836 L 8.7604734,230.89847 z M 401.18435,283.66795 L 401.71469,159.72263 L 390.34003,159.72263 C 380.49922,159.72263 378.6997,160.3468 376.99532,164.3513 C 375.91183,166.89706 357.5428,212.95226 336.1753,266.69618 L 297.3253,364.41242 L 255.90208,364.96932 L 214.47885,365.5262 L 214.47885,335.29232 L 214.47885,305.05847 L 207.79301,314.59654 C 204.11579,319.8425 194.74678,333.42857 186.97299,344.78783 L 172.83882,365.44101 L 131.94332,365.44101 L 91.04782,365.44101 L 91.04782,262.58182 L 91.04782,159.72263 L 80.761901,159.72263 L 70.475982,159.72263 L 70.475982,139.15079 L 70.475982,118.57895 L 121.90558,118.57895 L 173.33518,118.57895 L 173.33518,139.15079 L 173.33518,159.72263 L 163.04926,159.72263 L 152.76334,159.72263 L 152.76334,199.152 C 152.76334,220.83812 153.42826,237.91641 154.24095,237.10372 C 155.05364,236.29103 168.84486,209.52193 184.88809,177.61682 L 214.05762,119.60755 L 255.41191,119.05067 L 296.7662,118.49377 L 296.7662,180.61235 L 296.7662,242.7309 L 317.01618,201.74106 L 337.26615,160.75122 L 327.30209,160.12942 L 317.33804,159.50761 L 317.33804,139.04328 L 317.33804,118.57895 L 359.51031,118.57895 L 401.68258,118.57895 L 401.68258,86.692609 L 401.68258,54.806259 L 224.76477,54.806259 L 47.846968,54.806259 L 47.846968,230.3526 C 47.846968,326.9031 48.478544,406.53052 49.25044,407.30244 C 50.022357,408.07435 129.40393,408.46008 225.65395,408.1596 L 400.65399,407.61328 L 401.18435,283.66795 z"
       id="path2627"
       style="fill:#2b2474;fill-opacity:1" />
  </g>
</svg>
